<svg width="22" height="25" viewBox="0 0 22 25" fill="none" xmlns="http://www.w3.org/2000/svg">
<path d="M21.5 20.1654V21.332H0.5V20.1654L2.83333 17.832V10.832C2.83333 7.21536 5.20167 4.03036 8.66667 3.0037C8.66667 2.88703 8.66667 2.78203 8.66667 2.66536C8.66667 2.04653 8.9125 1.45303 9.35008 1.01545C9.78767 0.577864 10.3812 0.332031 11 0.332031C11.6188 0.332031 12.2123 0.577864 12.6499 1.01545C13.0875 1.45303 13.3333 2.04653 13.3333 2.66536C13.3333 2.78203 13.3333 2.88703 13.3333 3.0037C16.7983 4.03036 19.1667 7.21536 19.1667 10.832V17.832L21.5 20.1654ZM13.3333 22.4987C13.3333 23.1175 13.0875 23.711 12.6499 24.1486C12.2123 24.5862 11.6188 24.832 11 24.832C10.3812 24.832 9.78767 24.5862 9.35008 24.1486C8.9125 23.711 8.66667 23.1175 8.66667 22.4987" fill="white"/>
</svg>
