<svg width="50" height="50" viewBox="0 0 50 50" fill="none" xmlns="http://www.w3.org/2000/svg">
<path d="M42.595 29.5C43.2925 30.5125 44.485 31.1875 45.8125 31.1875C47.995 31.1875 49.75 29.4325 49.75 27.25C49.75 25.0675 47.995 23.3125 45.8125 23.3125C44.485 23.3125 43.2925 23.9875 42.595 25H40.75C40.75 21.4675 39.625 18.25 37.6 15.5725L40.615 12.5575C41.875 12.7825 43.1575 12.4225 44.125 11.5C45.6325 9.9475 45.6325 7.45 44.125 5.875C42.5725 4.3675 40.075 4.3675 38.5 5.875C37.5775 6.8425 37.2175 8.125 37.4425 9.385L34.4275 12.4C32.3575 10.8475 29.9275 9.8125 27.25 9.43V6.28C28.2625 5.5825 28.9375 4.39 28.9375 3.0625C28.9375 0.88 27.1825 -0.875 25 -0.875C22.8175 -0.875 21.0625 0.88 21.0625 3.0625C21.0625 4.39 21.7375 5.5825 22.75 6.28V9.43C20.725 9.7225 18.835 10.375 17.125 11.365L14.6275 7.7875C15.055 6.6175 14.9425 5.2675 14.1775 4.1875C12.9175 2.41 10.465 1.96 8.68753 3.22C6.91003 4.4575 6.46003 6.91 7.72003 8.6875C8.48503 9.79 9.70003 10.375 10.9375 10.375L13.5925 14.155C12.625 15.1225 11.86 16.2025 11.2075 17.395C9.81253 16.855 8.12503 17.125 7.00003 18.25C5.49253 19.825 5.49253 22.3 7.00003 23.875C7.65253 24.4825 8.44003 24.8425 9.25003 25C9.25003 26.215 9.40753 27.385 9.65503 28.51L6.70753 29.2975C5.76253 28.51 4.45753 28.1725 3.15253 28.51C1.06003 29.0725 -0.18197 31.2325 0.38503 33.3475C0.94753 35.44 3.13003 36.6775 5.22253 36.115C6.50503 35.755 7.47253 34.81 7.87753 33.64L11.275 32.7175C12.2875 34.495 13.6375 36.07 15.2125 37.375L12.7375 41.875C11.5 42.055 10.375 42.7525 9.72253 43.945C8.68753 45.8575 9.40753 48.2425 11.32 49.2775C13.2325 50.3125 15.6175 49.5925 16.6525 47.68C17.2825 46.51 17.26 45.16 16.6975 44.0575L19.105 39.625C20.9275 40.345 22.9075 40.75 25 40.75C25.135 40.75 25.27 40.75 25.405 40.75C25.1125 41.335 25 42.01 25 42.73C25.18 44.9125 27.07 46.5325 29.23 46.375C31.39 46.2175 33.0325 44.305 32.875 42.145C32.785 41.02 32.2225 40.03 31.4125 39.3775C32.47 38.905 33.4825 38.2975 34.4275 37.6L39.6925 42.865C39.4675 44.125 39.8275 45.4075 40.75 46.375C42.325 47.8825 44.8 47.8825 46.375 46.375C47.95 44.8675 47.8825 42.325 46.375 40.75C45.4075 39.8275 44.125 39.4675 42.865 39.6925L37.6 34.4275C38.7025 32.965 39.5575 31.3 40.0975 29.5H42.595ZM21.625 25C19.7575 25 18.25 23.4925 18.25 21.625C18.25 19.7575 19.7575 18.25 21.625 18.25C23.4925 18.25 25 19.7575 25 21.625C25 23.4925 23.4925 25 21.625 25ZM29.5 31.75C28.2625 31.75 27.25 30.7375 27.25 29.5C27.25 28.2625 28.2625 27.25 29.5 27.25C30.7375 27.25 31.75 28.2625 31.75 29.5C31.75 30.7375 30.7375 31.75 29.5 31.75Z" fill="#BA8DBB"/>
</svg>
