<svg width="24" height="48" viewBox="0 0 24 48" fill="none" xmlns="http://www.w3.org/2000/svg">
<path d="M0 0V4.8H2.4V38.4C2.4 40.9461 3.41143 43.3879 5.21177 45.1882C7.01212 46.9886 9.45392 48 12 48C14.5461 48 16.9879 46.9886 18.7882 45.1882C20.5886 43.3879 21.6 40.9461 21.6 38.4V4.8H24V0H0ZM9.6 33.6C8.16 33.6 7.2 32.64 7.2 31.2C7.2 29.76 8.16 28.8 9.6 28.8C11.04 28.8 12 29.76 12 31.2C12 32.64 11.04 33.6 9.6 33.6ZM14.4 24C12.96 24 12 23.04 12 21.6C12 20.16 12.96 19.2 14.4 19.2C15.84 19.2 16.8 20.16 16.8 21.6C16.8 23.04 15.84 24 14.4 24ZM16.8 12H7.2V4.8H16.8V12Z" fill="#BA8DBB"/>
</svg>
