<svg width="32" height="40" viewBox="0 0 32 40" fill="none" xmlns="http://www.w3.org/2000/svg">
<path d="M0 0H4V4C4 6.88 5.36 9.22 7.76 11.56C9.48 13.22 11.78 14.82 14.18 16.4L10.52 18.78C8.54 17.44 6.62 16 5 14.42C2.14 11.64 0 8.2 0 4V0ZM28 0H32V4C32 8.2 29.86 11.64 27 14.42C24.18 17.18 20.58 19.46 17.08 21.68C13.58 23.92 10.18 26.1 7.76 28.44C5.36 30.78 4 33.12 4 36V40H0V36C0 31.8 2.14 28.36 5 25.58C7.82 22.82 11.42 20.54 14.92 18.32C18.42 16.08 21.82 13.9 24.24 11.56C26.64 9.22 28 6.88 28 4V0ZM21.48 21.22C23.46 22.56 25.38 24 27 25.58C29.86 28.36 32 31.8 32 36V40H28V36C28 33.12 26.64 30.78 24.24 28.44C22.52 26.78 20.22 25.18 17.82 23.6L21.48 21.22ZM6 2H26V4L25.88 5H6.12L6 4V2ZM7.36 8H24.64C24.16 8.68 23.6 9.38 22.84 10.12L21.82 11H10.14L9.16 10.12C8.4 9.38 7.84 8.68 7.36 8ZM10.18 29H21.86L22.84 29.88C23.6 30.62 24.16 31.32 24.64 32H7.36C7.84 31.32 8.4 30.62 9.16 29.88L10.18 29ZM6.12 35H25.88L26 36V38H6V36L6.12 35Z" fill="#BA8DBB"/>
</svg>
