<svg width="42" height="46" viewBox="0 0 42 46" fill="none" xmlns="http://www.w3.org/2000/svg">
<path d="M21.0001 8.41536C18.6876 8.41536 16.8334 10.2695 16.8334 12.582C16.8334 14.8945 18.6876 16.7487 21.0001 16.7487C23.3126 16.7487 25.1667 14.8945 25.1667 12.582C25.1667 10.2695 23.3126 8.41536 21.0001 8.41536ZM41.8334 0.0820312V10.4987H37.6668V6.33203H4.33342V10.4987H0.166748V0.0820312H4.33342V4.2487H37.6668V0.0820312H41.8334ZM27.2501 21.457V45.9154H23.0834V35.4987H18.9167V45.9154H14.7501V21.457C10.4376 19.1862 7.45842 14.6654 7.45842 9.45703V8.41536H11.6251V9.45703C11.6251 14.6654 15.7917 18.832 21.0001 18.832C26.2084 18.832 30.3751 14.6654 30.3751 9.45703V8.41536H34.5418V9.45703C34.5418 14.6654 31.5626 19.1862 27.2501 21.457Z" fill="#BA8DBB"/>
</svg>
