<svg width="25" height="26" viewBox="0 0 25 26" fill="none" xmlns="http://www.w3.org/2000/svg">
<path d="M15.6651 18.8398H17.6172V22.7033C17.6172 24.3011 16.3036 25.6008 14.6891 25.6008H2.92797C1.31359 25.6008 0 24.3011 0 22.7033V3.77247C0 2.17491 1.31359 0.875 2.92797 0.875H14.6891C16.3036 0.875 17.6172 2.17491 17.6172 3.77247V7.63595H15.6651V3.77247C15.6651 3.24001 15.2273 2.80665 14.6891 2.80665H2.92797C2.38991 2.80665 1.95198 3.24001 1.95198 3.77247V22.7033C1.95198 23.2358 2.38991 23.6692 2.92797 23.6692H14.6891C15.2273 23.6692 15.6651 23.2358 15.6651 22.7033V18.8398ZM20.3989 8.68464L19.0186 10.0506L21.2633 12.2722H8.63781V14.2038H21.2633L19.0186 16.4252L20.3989 17.7912L25 13.238L20.3989 8.68464Z" fill="#6A6868"/>
</svg>
