<svg width="44" height="44" viewBox="0 0 44 44" fill="none" xmlns="http://www.w3.org/2000/svg">
<path d="M4.49489 20.4031L20.4024 4.49562C25.6899 -0.769375 34.2174 -0.769375 39.5049 4.49562C44.7699 9.76062 44.7699 18.3106 39.5049 23.5981L23.5974 39.5056C18.3099 44.7706 9.75989 44.7706 4.49489 39.5056C-0.770108 34.2181 -0.770108 25.6906 4.49489 20.4031ZM7.68989 23.5981C5.32739 25.9381 4.53989 29.2906 5.34989 32.2831L18.8274 18.8281L28.3674 28.3681L36.3099 20.4031C39.8424 16.8931 39.8424 11.2006 36.3099 7.69062C32.7999 4.15812 27.1074 4.15812 23.5974 7.69062L7.68989 23.5981Z" fill="#BA8DBB"/>
</svg>
