<svg width="25" height="22" viewBox="0 0 25 22" fill="none" xmlns="http://www.w3.org/2000/svg">
<path d="M22.5195 4.6875H3.90625C3.47461 4.6875 3.125 4.33789 3.125 3.90625C3.125 3.47461 3.47461 3.125 3.90625 3.125H22.6562C23.0879 3.125 23.4375 2.77539 23.4375 2.34375C23.4375 1.04932 22.3882 0 21.0938 0H3.125C1.39893 0 0 1.39893 0 3.125V18.75C0 20.4761 1.39893 21.875 3.125 21.875H22.5195C23.8877 21.875 25 20.8237 25 19.5312V7.03125C25 5.73877 23.8877 4.6875 22.5195 4.6875ZM20.3125 14.8438C19.4497 14.8438 18.75 14.144 18.75 13.2812C18.75 12.4185 19.4497 11.7188 20.3125 11.7188C21.1753 11.7188 21.875 12.4185 21.875 13.2812C21.875 14.144 21.1753 14.8438 20.3125 14.8438Z" fill="#6A6868"/>
</svg>
